<?xml version="1.0" encoding="utf-8"?>
<!-- Generator: Adobe Illustrator 22.1.0, SVG Export Plug-In . SVG Version: 6.00 Build 0)  -->
<svg version="1.1" id="Calque_1" xmlns="http://www.w3.org/2000/svg" xmlns:xlink="http://www.w3.org/1999/xlink" x="0px" y="0px"
	 viewBox="0 0 595.3 595.3" style="enable-background:new 0 0 595.3 595.3;" xml:space="preserve">
<style type="text/css">
	.st0{fill:#FFFFFF;}
</style>
<circle cx="308.4" cy="255.3" r="202.9"/>
<g>
	<g>
		<g>
			<g>
				<g>
					<path class="st0" d="M513.6,404.8c3.3-1.5,1.7-1.7,2.2-2.1C510.5,405.5,513.9,405,513.6,404.8z"/>
					<path class="st0" d="M458.3,426.9l0.9-0.6c-2.8,1-5.6,2-8.4,3C453.4,428.5,455.8,427.7,458.3,426.9z"/>
					<path class="st0" d="M409.5,420.3c0.4,1.2,1.5,2.7,2.9,4.2c0.4,0.4,0.8,0.7,1.2,1.1c0.2,0.2,0.4,0.4,0.7,0.6
						c0.2,0.2,0.5,0.3,0.7,0.5c0.5,0.3,1,0.7,1.5,1c0.5,0.4,1.1,0.6,1.7,0.9c2.3,1.2,5,1.9,7.6,2.5c2.6,0.5,5.2,0.6,7.6,0.7
						c0.5,0.1,1,0.2,1.6,0.3c1.4-0.5,2.8-1,4.2-1.6c-2.9,0.4-5.9,0.8-9,0.6c-3-0.1-6.1-0.7-8.9-1.7c-0.3-0.1-0.7-0.3-1-0.4l-0.5-0.2
						l-0.5-0.2c-0.6-0.3-1.3-0.7-1.9-1c-0.6-0.3-1.2-0.8-1.7-1.1c-0.6-0.4-1.1-0.7-1.6-1.2c-0.5-0.4-1-0.9-1.4-1.3
						c-0.5-0.4-0.8-0.9-1.2-1.3c-0.4-0.4-0.8-0.8-1.1-1.3C410.1,421.1,409.8,420.7,409.5,420.3z"/>
					<path class="st0" d="M405.2,393.9c-0.3,0.8-0.4-0.6-0.3-0.8c0,0,0,0,0,0.2c0,0.2,0,0.5,0,1c0,0.5,0,1.2,0,2.1
						c0,0.5,0.1,1,0.1,1.6c0,0.6,0.1,1.3,0.2,2c0-0.6,0-0.8,0-1.1C405.2,397.8,405.1,396.4,405.2,393.9z"/>
					<path class="st0" d="M405.2,398.9c0.3,2.6,0.3,1.7,0.3,0.7C405.4,398.5,405.4,397.2,405.2,398.9z"/>
					<path class="st0" d="M408.3,373.8l-0.7,3.6l-0.3,1.8c-0.1,0.6-0.2,1.2-0.3,1.8c0.1-0.2,0.2-0.4,0.2-0.7c0.1-0.3,0.2-0.7,0.4-1
						c0.2-0.8,0.5-1.6,0.7-2.3c0.5-1.4,0.8-2.4,0.6-1.2c0.3-1.8,0.7-3.1,0.9-3.9c0.2-0.8,0.2-1.2,0.2-1.2
						C409.9,370.5,409.2,371.8,408.3,373.8z"/>
					<path class="st0" d="M409.6,366.8l-1,3.7C408.9,369.9,409.3,369,409.6,366.8z"/>
					<path class="st0" d="M406.7,378.5l0.8-4l0.2-1l0.3-1l0.5-2c-0.5,1-1.1,0.9-1,3.6C407.3,373.4,407.3,375.1,406.7,378.5z"/>
					<path class="st0" d="M405.6,383c-0.5,2-1.1,4.4-1.2,5.3c-0.1,0.5-0.2,0.6-0.3,0.1c0-0.5-0.1-1.6,0.1-3.4
						c-0.3,1.8-0.4,3.3-0.5,4.6c-0.1,1.3-0.1,2.3-0.1,3.1c0,0.4,0,0.7,0,1c0,0.3,0.1,0.5,0.1,0.6c0.1,0.3,0.1,0.4,0.2,0.3
						c0.1-0.1,0.1-0.4,0.2-1c0.1-0.6,0.2-1.3,0.4-2.3c0.1-1,0.3-2.2,0.4-3.5c0-0.7,0.2-1.4,0.3-2.2
						C405.3,384.7,405.5,383.8,405.6,383z"/>
					<path class="st0" d="M406.8,418.9l0.6,1.3l0.8,1.2c0.5,0.8,1,1.6,1.6,2.3c0.6,0.5,1.2,1.1,1.9,1.6l2,1.4c-0.5-0.4-1.2-1-2-1.7
						c-0.7-0.8-1.6-1.8-2.3-2.7c-0.7-1-1.3-1.8-1.8-2.5C407.1,419.1,406.8,418.7,406.8,418.9z"/>
					<path class="st0" d="M431.7,334.6c0.1-0.6-2.3,1.3-3,1.5c-0.6,0.7-1.1,1.5-1.6,2.2l-1.6,2.3c1-1,2.3-2.6,3.5-3.8
						C430.4,335.5,431.4,334.6,431.7,334.6z"/>
					<path class="st0" d="M428.8,336.1l2.6-3.2l1.3-1.6c0.5-0.5,0.9-1,1.4-1.5c-1.4,1.3-2.3,2.4-3.1,3.3c-0.8,0.9-1.3,1.5-1.7,2
						C428.5,335.9,428.5,336.1,428.8,336.1z"/>
					<path class="st0" d="M408.6,365c-0.4,1.1-0.7,2.2-0.9,3.3l-0.8,3.3c-0.1,0.6-0.3,1.1-0.4,1.7l-0.3,1.7l-0.6,3.4
						c0.5-2.7,0.9-5.4,1.7-8l1-4l1.3-3.9L408.6,365z"/>
					<path class="st0" d="M455.7,314.5l-3.5,3.2l3.2-2.7l1.6-1.4c0.5-0.5,1.1-0.9,1.7-1.3l-1.5,1.1L455.7,314.5z"/>
					<path class="st0" d="M461.2,300.1c1.1-3.3-3.1,3.6-1.7,0.3c-2.6,5-4.9,9.2-7.1,13c0.6-1,1.3-2,1.9-3c0.3-0.5,0.7-1,1-1.5
						c0.3-0.5,0.7-1.1,1-1.6c0.7-1.1,1.5-2.2,2.3-3.4C459.6,302.7,460.3,301.4,461.2,300.1z"/>
					<path class="st0" d="M448.5,319.6c0.7-1,1.3-2,2-3c0.7-1,1.4-2.1,2-3.2c-0.6,1.1-1.3,2.1-2,3.1
						C449.8,317.5,449.1,318.6,448.5,319.6z"/>
					<path class="st0" d="M444.7,320.4c0.6-0.2,1.9-0.6,5.7-3.2l-3.1,1.3C446.6,319,445.7,319.7,444.7,320.4z"/>
					<path class="st0" d="M447.3,318.4l0.1,0c2.8-2.2,4.9-3.4,5.8-4C452.5,314.9,450.5,315.9,447.3,318.4z"/>
					<path class="st0" d="M444.1,320.9c0.2-0.2,0.4-0.3,0.7-0.5C444.4,320.5,444.3,320.6,444.1,320.9z"/>
					<path class="st0" d="M419.5,346c0.6-1.1,1.4-2.4,2.1-3.7c0.4-0.7,0.8-1.3,1.1-1.8c0.4-0.6,0.7-1.1,0.9-1.5c1-1.7,0.8-2-2.6,1.7
						C419.5,343.9,423.1,339.5,419.5,346z"/>
					<path class="st0" d="M440.3,322.7c-1.1,1-2.3,1.9-3.4,2.9l-3.3,3c0.3,0,1.7-0.8,0.1,1l3.2-3.5c0.5-0.6,1.1-1.2,1.7-1.7
						L440.3,322.7z"/>
					<path class="st0" d="M443.5,319.6c-1.1,1-2.1,2-3.2,3l2.6-2.1C443,320.3,443.2,319.9,443.5,319.6z"/>
					<path class="st0" d="M458,307.8c-0.8,1.7-1.9,3.4-3.1,5.2c-0.6,0.9-1.2,1.8-1.8,2.7c-0.7,0.9-1.4,1.8-2.1,2.8
						c0.8-1,1.6-2,2.4-3l2.3-3.1c1.6-2.1,2.9-4.2,4.2-6.4C460.1,305.3,460.8,303.2,458,307.8z"/>
					<path class="st0" d="M464.1,307.9c0.2-0.1,0.5-0.3,0.7-0.4C464.4,307.6,464,307.8,464.1,307.9z"/>
					<path class="st0" d="M416.9,350.4c0.2-0.1,0.5-0.2,0.7-0.3c0-0.1,0-0.1,0.1-0.2L416.9,350.4z"/>
					<path class="st0" d="M460.5,305.4c0.3-0.4,0.5-0.8,0.8-1.1c0.2-0.4,0.4-0.7,0.6-1.1c0.4-0.7,0.7-1.3,1-1.9
						c0.6-1.2,1-2.2,1.4-3.2c-0.7,1.3-1.3,2.6-2,3.9c-0.4,0.7-0.7,1.4-1.1,2c-0.4,0.7-0.8,1.4-1.2,2
						C459.9,306.4,459.9,306.5,460.5,305.4z"/>
					<path class="st0" d="M440.2,329.6c0.7-0.7,1.5-1.4,2.4-2.1c0.4-0.4,0.8-0.8,1.3-1.2c0.4-0.4,0.8-0.8,1.2-1.3
						c-0.4,0.3-0.8,0.7-1.3,1.2c-0.5,0.4-1,0.9-1.5,1.3C441.2,328.4,440.3,329.2,440.2,329.6z"/>
					<path class="st0" d="M466.1,307.1c-0.2,0.1-0.3,0.2-0.5,0.3C466.8,307,466.6,306.9,466.1,307.1z"/>
					<path class="st0" d="M466.1,307.1c1.7-1,3-1.9,4.3-2.7l-6.1-6.3l0,0l0,0l6.1,6.3c-2,1.1-3.9,2.1-5.5,3.1
						C465.3,307.3,465.8,307.1,466.1,307.1z"/>
					<path class="st0" d="M407.6,362.8c0.1-0.5,2.3-2.2,5.5-4.4c1.5-1.1,3.3-2.3,5.2-3.5c1.9-1.2,3.8-2.5,5.8-3.7
						c1.7-1.4,2.5-2.5,2.8-3.1c0.2-0.6-0.1-0.9-0.9-0.8c-0.8,0-2,0.4-3.4,0.9c-1.5,0.5-3.1,1.2-4.9,2c0,0.2,0,0.4-0.8,1.2
						c-0.8,0.8-2.6,2.2-6.2,4.8c0.7-0.3,2.1-1.1,3.8-2.1c0.8-0.5,1.7-1,2.6-1.5c0.9-0.5,1.7-1,2.5-1.5c3.1-1.9,5.2-3,2.3-0.5
						c-2.4,1.8-4,3.1-5.4,3.9c-1.3,0.8-2.2,1.4-3,1.7c-0.7,0.4-1.3,0.6-2.1,1c-0.7,0.3-1.6,0.7-2.9,1.3c2.4-0.8-0.7,1.4-4,3.8
						c-3.4,2.3-7.1,4.8-5.6,4.8l4.5-2.7l2.3-1.4l2.2-1.5C408.1,361.8,404.9,364.1,407.6,362.8z"/>
					<path class="st0" d="M430.9,339.8l2.7-2.5c-1.6,1.3-3,2.4-4.6,3.5c-1.6,1.1-3.4,2.2-5.7,3.7c-1.1,1-2,1.8-2.8,2.4
						c-0.7,0.6-1.3,1.1-1.7,1.5c-0.8,0.8-1.1,1.1-1.2,1.4c2.4-1.7,4.9-3.4,7.2-5.3l3.5-2.8l3.4-2.9L430.9,339.8z"/>
					<path class="st0" d="M445.1,325.8c-0.2,0.3-0.4,0.7-0.6,1.2c-0.3,0.4-0.6,0.9-0.9,1.4c-0.7,0.9-1.4,1.9-1.9,2.7
						c-1.1,1.6-1.4,2.4,0.8,0.8c1.8-2,3.1-3.3,3.9-4.3c0.8-1,1.3-1.7,1.6-2.3c0.4-0.6,0.6-1.1,1-1.7c0.4-0.7,1-1.5,1.9-2.8
						c-1.3,1.7-2.3,2.9-3,3.7c-0.7,0.8-1.1,1.3-1.3,1.4c-0.4,0.4,0.1-0.3,0.6-1c1-1.5,2.4-3.5-1.8,1c1-1.3,2.1-2.6,3-3.8
						c1-1.2,1.8-2.4,2.7-3.5c-1,1.2-1.9,2.4-3,3.4c-1,1.1-2,2.1-3,3.1c0.1-0.1,0.2-0.2,0.3-0.3l0.1-0.1c0,0,0,0,0,0
						c0.6-0.5,0.8-0.6,0.2,0c0,0-0.2,0.2-0.2,0.3C445.3,325.2,445.2,325.5,445.1,325.8c-3.5,3.6-0.7,0.5,0.3-0.8
						c0-0.1,0.1-0.2,0-0.2c0,0,0,0,0,0l-1.4,1.7l-1.4,1.6l-2.9,3.2c-1,1.1-2,2-3,3.1c-1,1-2,2.1-3.1,3c1.4-1.2,2.9-2.6,4.8-4.4
						c1-0.9,1.9-2,3-3.1c0.6-0.6,1.1-1.2,1.8-1.9C443.8,327.3,444.4,326.6,445.1,325.8z"/>
					<path class="st0" d="M425.6,332.2c0.4-0.4,0.5-0.3,0.5-0.3C426.8,331,427,330.6,425.6,332.2z"/>
					<path class="st0" d="M430.9,327.3c-0.9,1-1.3,2-4.2,5c-2.6,2.5-0.3-0.3-0.6-0.3c-0.4,0.5-0.9,1.2-1.4,1.8
						c-0.5,0.7-0.9,1.3-1.1,1.8c-0.2,0.4-0.2,0.6,0.2,0.3c0.4-0.3,1.1-1.1,2.5-2.5l0.7-1c1.3-1.2,2.6-2.6,4-3.8
						c1.4-1.2,2.8-2.3,4-3.2c0.6-0.5,1.1-0.9,1.6-1.2c0.5-0.3,0.9-0.6,1.3-0.8c0.7-0.4,1-0.6,0.8-0.3c-1,0.4-2,0.7-3.2,1.4
						C434.3,325,432.9,325.9,430.9,327.3z"/>
					<path class="st0" d="M464.8,304.7l4.6-2.5l-3.1-3.2l-2.1,4.1l-1.1,2.1l-1.2,2c1.6-1.9,2.9-4,4.3-6.1l-0.6,0.1
						c0.4-0.8,0.8-1.5,1.1-2l2.3,2.4C464.1,304.2,465.5,304,464.8,304.7z"/>
					<path class="st0" d="M415.3,351c0.4-0.6,0.7-1.2,1-1.8c-2,1.9-4.1,3.7-6.2,5.6L415.3,351z"/>
					<path class="st0" d="M399.3,360.7l0.2-1c-1.4,0.9-2.7,1.9-4.1,2.7C396.8,361.9,398,361.3,399.3,360.7z"/>
					<path class="st0" d="M399.3,96.5l3.4-2.8C401.1,95,400.1,95.8,399.3,96.5z"/>
					<path class="st0" d="M374.6,116.1l-0.4,0.8C375.2,115.8,375.6,115.3,374.6,116.1z"/>
					<path class="st0" d="M386,294.9c-2.5,1.9-5.1,4-7.1,5.4c-2,1.5-3.2,2.5-2.6,2.5l2-0.7c1.6-1.5,2.9-2.9,4.2-4.1
						C383.8,296.9,384.9,295.8,386,294.9z"/>
					<path class="st0" d="M214.7,317.3c-0.4,0.5-0.7,1-1.1,1.5c-0.5,1.5-0.9,2.9-1.3,4.1C213,321.2,213.8,319.3,214.7,317.3z"/>
					<path class="st0" d="M213.7,311.7l4.5-7.1C217.1,306.1,215.7,308.4,213.7,311.7z"/>
					<path class="st0" d="M465.7,112.2l-2.6,4.5C468.2,110.6,465.6,113,465.7,112.2z"/>
					<path class="st0" d="M377.4,263.9c0.8-1,1.6-2,2.4-3c0.8-0.9,1.5-1.8,2.2-2.7c1.4-1.7,2.6-3.3,3.8-4.7
						c-1.1,1.2-2.2,2.3-3.1,3.3c-1,1.1-1.8,2-2.6,2.9C378.5,261.6,377.6,263,377.4,263.9z"/>
					<path class="st0" d="M395.2,111.3c2-1.8,2.7-2.6,2.5-2.7C395.7,110.4,394.6,111.5,395.2,111.3z"/>
					<path class="st0" d="M395.8,241.9c-0.7,0.6-1.4,1.3-2.1,1.9c-2.5,3-5,6.1-8,9.7c1.6-1.7,3.3-3.6,5.1-5.5c0.9-1,1.7-2,2.5-3
						C394.2,244,395,243,395.8,241.9z"/>
					<path class="st0" d="M195.1,193.4c0.5-0.2,1-0.4,1.4-0.5C196.6,192.7,196,192.9,195.1,193.4z"/>
					<path class="st0" d="M236.1,122.6c-1.6,0.5-4.3,1.3-6.7,2.3c0.6-0.2,1.4-0.5,2.5-0.9c0.5-0.2,1.2-0.4,1.9-0.7
						C234.5,123.1,235.2,122.9,236.1,122.6z"/>
					<path class="st0" d="M335.9,367.8c0.3,0.6,0.5,0.8,0.6,1c0.1,0.1,0.1,0.1,0,0c-0.1-0.1-0.2-0.3-0.3-0.5
						C336.1,368,335.9,367.9,335.9,367.8z"/>
					<path class="st0" d="M347.6,378.3c-0.8,0-1.5,0-1.6,0.1C346.3,378.3,346.9,378.2,347.6,378.3z"/>
					<path class="st0" d="M422.1,211.3c0.1-0.1,0.2-0.1,0.3-0.2C421.3,211.6,421.5,211.5,422.1,211.3z"/>
					<path class="st0" d="M338.1,371.2c-0.7-0.8-1.5-1.8-2.1-2.9C336.3,368.8,336.7,369.8,338.1,371.2z"/>
					<path class="st0" d="M338,370.5c0.7,0.7,1.3,1.2,1.9,1.6c0.2,0,0.2,0-0.1-0.2C339.6,371.7,338.9,371.3,338,370.5z"/>
					<path class="st0" d="M334.8,364.3c0.2,1.6,0.6,2.9,1.2,4.1c-0.2-0.5-0.2-0.7-0.2-0.6C335.5,367.1,335.1,366.2,334.8,364.3z"/>
					<path class="st0" d="M251.4,306.1c-0.2,0.1-0.5,0.2-0.8,0.4C247.2,308.8,248.7,307.9,251.4,306.1z"/>
					<path class="st0" d="M309.4,368.3c0.1-0.1,0.2-0.2,0.4-0.3c-0.2,0.1-0.4,0.2-0.5,0.3L309.4,368.3z"/>
					<path class="st0" d="M297.4,376.8c4.7-4.3,7.8-6,11.9-8.5c-1.8,0.2-3.6,0.4-5.4,0.6L297.4,376.8z"/>
					<path class="st0" d="M461.7,53.2l-1.3,0.7l-1.1,0.6l-2.3,1.2l-4.6,2.5c2.5-2,4.8-3.7,6.8-5.2c0.4-0.3,1.1-0.8,1.6-1.1
						c0.6-0.3,1.1-0.7,1.6-1c1-0.6,1.9-1,2.5-1.3c1.4-0.7,2-1,1.6-1c-0.4,0-1.8,0.3-4.6,1.4c0,0.4-0.8,1-1.9,2
						c-0.1,0.1-0.3,0.2-0.5,0.4c-0.1,0.1-0.3,0.2-0.4,0.3c-0.3,0.2-0.6,0.5-0.9,0.7c-0.6,0.5-1.4,1-2.1,1.6c-3.1,2.3-7.3,5-11.6,7.8
						c-8.5,5.4-16.6,11.4-16.4,12.9l-5.9,3.4c1.6-1.1,1.8-1.4,3.4-2.5c-11.6,6.6-7.1,7.1-20.9,17.1c-4.9,3.4-8.4,5.6-5.4,2.9
						c-3.4,2.8-6.8,5.6-10.1,8.6c-3,2.4-2.6,1.4,0.4-1l-15.6,12.9l0.1-0.2c-2,2.1-6.5,6.9-8.7,9.2c-4.1,3.1,1.7-1.9,0.5-1.3l-8,7.9
						c-3.9,2.5,2.6-4.1,8.5-9.2c-4.8,2.4-6.5,4.1-9.2,6.8c-1.3,1.4-2.9,3-5.3,5.2c-2.4,2.2-5.4,5-9.8,8.6l7.5-7.5
						c-6,3.6-11.7,9.6-21,17.2c2.4-1.7,19.1-14.7,10.7-5.9c-1.3,1.1-2.8,2.4-4.5,4c-0.9,0.8-1.8,1.7-2.7,2.7c-1,1-1.9,2.2-3,3.4
						c-0.7-0.6-5.1,4.1-10.6,9.8l-0.5-1.3c-5.8,6.4-4.9,6.4-7.9,10.5c-6.6,7-8.7,7.9-10.8,9c-10.6,11.3,8.4-6.8-3.8,6.9
						c-4.4,4.7-7.9,8.9-11.5,13.5c-1.8,2.3-3.6,4.6-5.6,7.2c-1.8,2.6-3.8,5.5-6,8.6c-5.9,6.8,0.4-1.7-1.9,0.6l-4.1,6.9
						c-1.2,1.5-1.1,0.8-1,0.5c-1.9,2.8-1.7,3.1-1.9,3.7c-0.1,0.7-0.5,1.8-3.5,6.1c-0.3,1.6-3.8,5.7-8.1,10.8c-1.1,1.3-2.2,2.7-3.3,4
						c-1.1,1.4-2.2,2.9-3.2,4.4c-2.1,3-4,6.1-5.4,9c-2.1,2.5,0.2-1.7-0.8-1.2c-2.2,3.9-3.9,6.7-5.1,8.8c-1.2,2.2-2,3.8-2.8,5.4
						c-1.6,3.1-2.9,5.8-6.1,12.5l-3.6,5.2l-3.4,5.3c5.2-7.6,0.6,3.3-3.5,12.7c2-2.6,3.6-4.9,4.7-6.4l-3.6,7.3l-1.8,3.7l-0.9,1.8
						l-0.8,1.9c-1,1.7-0.7,0,0-2.6c-0.4,1-0.8,2-1.1,2.8c-3,5-2.3,2-1.1-2.1c1.1-1.7,2.3-3.3,3.5-4.8c1.2-3.9,2.3-7.7,1.2-7.3
						c-0.4,1-1.3,2.9-2.3,4.9c0.3-1,0.5-1.7,0.1-1.3c-0.4,0.4-1,2.1-2,4.6c-1,0.9-2.1,1.7-3,2.7l0.1,1.1l-10.3,19
						c-0.7,1.8-1.2,3.6-1.8,5.4c-0.6,1.8-1.1,3.6-1.7,5.4c-1.2,3.7-2.3,7.4-3.6,11.3c-1.3,3.9-2.8,8.2-3.7,13.2
						c-0.5,2.5-0.8,5.1-0.6,7.9c0.2,2.8,0.7,5.7,2.2,8.4c-0.9-1.3-1.4-2-1.7-2.4c-0.3-0.3-0.5-0.3-0.7,0c-0.4,0.5-0.4,1.9-1,1.9
						c-0.4-1.9-0.8-4.2-0.9-6.7c-0.1-2.5,0-5.3,0.5-8.2c0.5-2.9,1.3-5.9,2.3-8.8c0.5-1.5,1.1-2.9,1.7-4.4c0.6-1.4,1.2-2.9,1.9-4.3
						c-2.8,6-2.7,4.5-2.3,2.8c-1.3,3.5-2.6,7.2-3.6,11.1c-0.9,3.9-1.5,8.1-1,12.4c-0.5-0.3-0.7,1.1-0.3,3.5c0.4,2.4,1.6,5.7,3.6,8.7
						c-0.2-0.7-0.1-1,0.2-0.9c0.3,0.1,0.7,0.5,1.3,1.1c1.2,1.2,3.3,3.3,6.1,5c2.8,1.8,6.3,3.2,9.6,3.9c3.4,0.8,6.6,1,9,0.9
						c0.3,0.3-0.1,0.7-2.2,0.8c-0.5,0-1.1,0-1.8,0c-0.7,0-1.5-0.1-2.5-0.3c-1.9-0.3-4.3-0.8-7.2-2c3.1,1.6,5.9,2.2,8.4,2.5
						c2.5,0.2,4.6,0,6.7-0.2c4.2-0.6,8.1-1.5,14.3-2.1c-2.8,0.6-4.3,0.7-5.3,1.1c3.2-0.7,8.8-1.8,12.9-3c4.2-1.1,7.1-2,5.5-1.1
						c-0.9,0.3-1.8,0.6-2.7,0.9c4.5-1.4,10-3.5,15.5-6.4c5.3-2.9,11-6,16.2-8.9c5.1-3,9.7-6,13.2-8.3c3.4-2.3,5.7-4,6.1-4.8
						c0.3,0.1-1,3-1.7,3.8c2.1-1.7,4.1-3.6,6.2-5.5l6.1-5.5c2-1.9,4.1-3.7,6-5.5l5.9-5.7c-1.5,2.8,9.5-0.5-2.5,8.7
						c3.7-2.3,8.3-5.1,15.5-10.7c-2.5,1.5-7.3,2.4-4,0.1c2.5-1.2,4.2-2.1,5.4-2.8c1.3-0.7,2.2-1.3,3.1-1.8c1.9-1.2,4.1-2.6,10-6.1
						c-3.8,2.3-1.1-2.3,4.4-6.6c-0.6,0.9,1.8,1.4,0,3.2c4.1-4.2,8.2-8.4,12.2-12.6c-3.1,3.1,0.6,2,4-0.1c-0.8,0.4,2-2,5.5-5
						c1.8-1.5,3.7-3.1,5.3-4.5c1.7-1.4,3.1-2.8,3.9-3.6l-2.9,2.3c-1,0.8-2,1.5-3,2.2c0.9-0.8,1.8-1.5,2.6-2.2
						c0.8-0.7,1.5-1.4,2.2-2.1c1.4-1.3,2.5-2.6,3.6-3.7c2.1-2.3,3.6-4.2,5.1-6.1c0.7-1,1.5-1.9,2.3-2.9c0.8-1,1.6-2.1,2.6-3.3
						c1.9-2.3,4.4-5,7.8-8.4c-1.3,2-2.1,6.1,5.1-0.7c1.1-2.1,3.6-6.7,7.1-12.4c0.9-1.4,1.8-2.9,2.8-4.5c1-1.6,2-3.2,3-4.9
						c2.1-3.3,4.5-6.8,7.2-10.1c0.9-0.7,1.7-1.4,2.6-2.1l7.6-10.7c-0.9,1.9-2.3,4.5-4,7.6c-0.9,1.6-1.8,3.2-2.8,5
						c-1,1.8-2.1,3.5-3.2,5.3c-2.2,3.6-4.6,7.3-6.8,10.7c-1.1,1.8-2.3,3.3-3.4,4.9c-1.1,1.5-2.1,2.9-3.1,4.2c2.7-2.5,3.2-2.8,4-3.4
						c0.4-0.3,0.8-0.7,1.6-1.6c0.8-0.8,2-2.1,3.8-4.2c1.5-1.3,0.7,0-0.8,1.9c-0.4,0.5-0.8,1-1.2,1.5c-0.4,0.5-0.9,1-1.3,1.5
						c-0.9,1-1.7,1.9-2.2,2.5c1.5-1.6,3-3.1,4.4-4.7l4.3-4.8c2.8-3.2,5.8-6.4,8.6-9.7c-1.8,0,11.3-16.3,9.7-16.2
						c-2.7,3.8-5.4,7.6-8.1,11.4c-1.4,1.9-2.7,3.8-4.1,5.7l-4.3,5.5c-0.4,0-0.2-0.9,0.6-2.5c0.4-0.8,1-1.8,1.6-2.9
						c0.7-1.1,1.5-2.3,2.3-3.7c1.7-2.8,3.8-6,6.3-9.3c1.2-1.7,2.5-3.4,3.8-5.2c1.3-1.8,2.6-3.6,4-5.4c3.2-3.4-0.1,4.2,0.5,4.2
						c0.5-1.1,2.9-4.7,5.3-8.2c1.2-1.7,2.4-3.4,3.4-4.8c0.9-1.4,1.7-2.4,2-2.7l-1.9,3.4l-2,3.3c0.8-1,1.5-2,2.2-2.9
						c0.7-1,1.2-1.9,1.8-2.9c1.1-1.9,2.2-3.8,3.2-5.7c2.1-3.9,4.6-7.8,8.3-12.7c1.1-1.8,3.1-4.2,4.8-6.4c0.7-0.8,2.1-2.8,2.8-4
						c0.8-1.3,1.3-2.3,1.2-2.5c-1.7,2.3-3.4,3.9-4.7,4.7c-1.1,0.5-2.1,0.7-2.9,0.6c-0.8-0.1-1.4-0.6-1.8-1.2
						c-0.2-0.3-0.3-0.7-0.3-1.2c0-0.2,0-0.5,0.1-0.7c0-0.1,0-0.3,0.1-0.4c0-0.1,0-0.2,0-0.3c0.1-0.2,0.8-1,1.7-2.3
						c1-1.5,2.3-3.4,3.6-5.3c1.6-2.4,3.3-4.9,4.7-7.1c0.2-0.3,0.4-0.6,0.6-0.9l0.1-0.2c0,0-0.1,0-0.1,0l-0.3,0
						c-0.4,0.1-0.7,0.1-1,0.2c-0.6,0.1-1.2,0.2-1.6,0.2c-0.5,0-0.7-0.1-0.7-0.3c0-0.2,0.3-0.5,0.8-0.8c1-0.7,2.9-1.8,5-2.9
						c1.1-0.6,2.2-1.2,3.2-1.7c0.5-0.3,1-0.6,1.5-0.8c0.3-0.2,0.2-0.1,0.3,0c0,0,0,0.1,0.1,0.1c0.1,0.1,0.3,0,0.7-0.3
						c0.2-0.2,0.4-0.5,0.7-0.8c0.1-0.2,0.3-0.4,0.4-0.6c0-0.1,0.1-0.1,0.1-0.2c0-0.1,0.1-0.1,0-0.1c-0.1,0-0.2,0-0.2,0
						c-0.5,0.4-2.3,1.2-4.1,2.1c-1.8,0.8-3.7,1.7-4.7,2.1c-2.4,0.7-1.6,0.1-1.5-0.2c0-0.3-0.9-0.1-7.1,2.4c-0.4,0.3-1,0.7-1.8,1.1
						c-0.8,0.4-1.7,0.8-2.8,1.3c-2,1-4.2,1.9-5.9,2.6c-0.8,0.4-1.5,0.6-1.9,0.8c-0.4,0.2-0.4,0.2-0.2,0.2c0.5-0.2,2.4-0.9,6.8-2.4
						c-2.7,1.3-4.6,2.2-6.4,2.9c-1.4,0.7-2.6,1.2-3.8,1.8c-1.2,0.6-2.5,1.1-4.1,1.9c-1.6,0.8-3.4,1.8-5.9,3.1
						c0.9-0.2,0.9,0.1,0.2,0.8c-0.6,0.8-1.8,1.9-3.4,3.2c-1.6,1.3-3.5,2.9-5.4,4.5c-1,0.8-2,1.6-3,2.4c-1,0.8-1.9,1.6-2.8,2.3
						c0.2-0.6-1.7,0.2-2.7,0.7c-7.7,5.6-13.4,10.3-18.9,15c-1.3,1.2-2.7,2.4-4,3.6c-1.3,1.2-2.6,2.5-4,3.9c-1.4,1.3-2.7,2.7-4.1,4.2
						c-0.7,0.7-1.4,1.5-2.1,2.3c-0.7,0.8-1.4,1.6-2.2,2.5c-0.7,0.5-2.5,2.3-3.9,3.7c-1.4,1.3-2.3,2.2-1.4,0.5
						c-0.7,1.1-1.4,2.1-2.3,3.5c-0.9,1.3-2,3-3.6,5.2c-1.9,1.9-2.3,2.4-2.1,1.9c0.2-0.5,1.2-1.8,2.2-3.2c2-2.8,4.2-5.8,1.1-3
						c0.1,0.3-0.4,1.1-1.2,2.4c-0.8,1.3-1.9,3-3.1,4.9c-1.2,1.9-2.6,3.9-3.8,6c-1.2,2.1-2.5,4-3.4,5.8c1.1-0.7,3.7-4.5,6.5-8.8
						c1.5-2.2,2.9-4.5,4.4-6.7c1.5-2.2,2.8-4.2,4-5.8c1.3,1-6,12.6-14.9,28.8c-3.6,6.4-4.5,7.7-4.8,7.6c-0.3-0.1,0.1-1.5-0.4-0.3
						c-3.5,6-5.5,10.5-7,14c-1.5,3.6-2.3,6.3-3.1,8.8c-0.8,2.6-1.5,4.9-2.7,8c-0.6,1.5-1.2,3.2-2,5.2c-0.8,2-1.8,4.2-2.9,6.8
						c-4.1,8.2-2.2-0.3-3.6,1.3c1.8-5.7,3.7-10,5.5-13.7c0.9-1.9,1.8-3.6,2.6-5.3c0.9-1.7,1.7-3.5,2.5-5.3c-0.8,1.5-1.5,3-2.3,4.5
						c-0.7,1.5-1.5,3-2.2,4.5c0.6-1.8,1.6-4.6,2.8-7.4c1.2-2.8,2.5-5.6,3.6-7.5c-0.5,0.8-1.2,2.1-2.1,3.7c-0.8,1.7-1.9,3.7-2.9,6
						c-2.2,4.6-4.5,10.5-7,16.8c-2.4,6.3-4.7,13.1-6.8,19.6c-1,3.3-2,6.4-2.9,9.5c-0.8,3.1-1.4,6-1.5,8.8c0.1,1,0.3,2.1,0.6,3.2
						c0.3,1.1,0.7,2.1,1.2,2.9c0.4,0.8,0.9,1.3,1,1.4c0.2,0.2,0.2-0.1-0.1-0.8c-1.1-1.9-1.6-4.1-1.8-6.4c0.2-1.5,0.4-1.5,0.5-0.8
						c0.1,0.7,0.4,2.2,0.8,3.5c0.2,0.6,0.5,1.2,0.7,1.7c0.2,0.5,0.5,0.8,0.6,1c0.3,0.3,0.1,0-0.4-1.8c0.7,1.9,1.9,3.5,3.5,5
						c1.6,1.4,3.5,2.5,5.6,3.4c4.4,1.7,9.7,2.2,15.8,2.1c0.8,0.4,1.6,0.7,2.4,1c-0.2-0.2-2.2-0.1-4.6-0.2c-2.4,0-5.2-0.2-6.9-0.3
						c1.3,0,3,0.3,5.1,0.4c2.1,0.1,4.5,0.2,6.9,0.1c4.9-0.2,9.8-1.3,12.3-2.9c-2.9,0.6-5.8,1-8.6,1.2c2.1-0.5,4.4-1.2,6.6-2
						c2.3-0.8,4.5-1.8,6.9-3c2.4-1.1,4.9-2.2,7.4-3.4c2.5-1.2,5-2.2,7.6-3.4c-1.3,0.3-2,0.5-2.6,0.7c-0.6,0.2-0.9,0.4-1.4,0.6
						c-0.9,0.4-2.2,0.9-6,1.8c1.7-0.3,1,0.3-1,1.2c-1,0.4-2.3,1-3.7,1.5c-1.4,0.6-3,1.2-4.5,1.7c-3,1-5.9,1.7-7.4,2.1
						c-1.5,0.4-1.6,0.7,1.1,0.6c-4,0-7.3,0.3-10.9,0.3c-1.8,0-3.6-0.1-5.5-0.4c-1.9-0.3-3.9-0.9-5.8-1.9c0.1,0.2,0.7,0.6,0.5,0.7
						c-0.1,0-0.5,0-1.2-0.3c-0.8-0.2-1.9-0.7-3.4-1.7c-0.3-0.1-1-0.4-1.4-0.6c-0.2-0.1-0.2-0.2-0.3-0.3c0.1,0.1,0.2,0.2,0.3,0.3
						c-0.3-0.1-0.3-0.1,0.1,0.1c1.2,1.2,2.4,2,2.8,2.5c-1-0.2-2.4-0.7-3.8-1.7c-1.4-1-2.8-2.5-3.6-4.1c-1.8-3.4-1.3-8-1.1-10.4
						c0.6-2.6,0.7-2,0.6-1.1c0,0.9-0.1,2,0.4,0.7c0.2-2.3,0.7-4.8,1.2-7.3c1-0.5,5.8-13.7,2.4-1c0.5-1.9,1.2-3.8,1.8-5.6
						c0.6-1.9,1.2-3.7,1.9-5.6c2.7-6.4,6.2-15.3,8.2-20.8c1.1-2.5,2.4-5.8,3-7.9c0.7-2.1,1-3,0.3-0.6c2.4-5.7,4.9-11.3,7.7-16.8
						l0.3,0c4.3-8,8.8-16.3,14.2-24.4c5.3-8.1,11.5-16.1,19-23.3c2-2.3,4-4.7,6.5-7.3c1.2-1.3,2.6-2.7,4.1-4.2
						c1.6-1.4,3.2-3.1,5.2-4.7l2-0.7c0.7-0.7,1.5-1.4,2.4-2.2c0.9-0.7,1.9-1.5,2.9-2.3c2-1.7,4.3-3.3,6.5-4.8
						c4.3-3.1,8.3-5.7,9.5-6.9c4-1.5,12.1-6.3,21.1-10.9c1.9-1,3.8-1.9,5.6-2.9c0.4-0.2,0.9-0.4,1.2-0.5c0.2-0.1,0.4-0.1,0.5-0.2
						l0.1,0c0,0,0.1,0,0,0c-0.1,0.1-0.1,0.2-0.2,0.3l2.1-1.7c-0.8,1.3-1.3,2.5-2,3.9c-0.2,0.4-0.3,0.7-0.5,1.1l-0.2,0.3
						c-0.1,0.1-0.1,0.1-0.3,0.5c-0.3,0.6-0.7,1.1-1,1.7c-1.3,2.3-2.7,4.8-4.2,7.4l1.1-0.1c-0.6,1.1-1.3,2.4-2,3.6
						c-0.7,1.3-1.6,2.5-2.5,3.9c-1.8,2.7-3.9,5.5-6,8.5c-1.1,1.5-2.1,3.1-3.4,4.6c-1.2,1.5-2.4,3.1-3.6,4.6
						c-2.4,3.1-4.9,6.4-7.3,9.7c0.4-1.1,2.9-4.4,4.8-6.6c-1.6,1.8-3.2,3.7-4.8,5.6c-1.6,1.9-3.2,3.8-4.8,5.8c-1.6,2-3.1,4-4.6,6
						l-2.3,3c-0.8,1-1.6,2-2.3,3c-3.1,3.9-6.2,7.8-9.3,11.6c-3.2,3.6-6.4,7-9.7,9.9c-1.4,1.7-2.6,3.1-3.8,4.4
						c-1.2,1.2-2.4,2.3-3.6,3.3c0.3-0.3,0.5-0.6,0.7-0.8c-0.3,0.3-0.8,0.8-1.3,1.3c-1.5,1.3-3,2.5-4.7,4c1.5-1.1,2.8-2.3,4-3.3
						c-2.4,2.4-6,6.1-9.4,9.8l-2.2,0.8c-0.3,0.3-0.5,0.5-0.8,0.8c-3.9,3.1-2.6,3-0.2,1.8c-1.8,1.8-3.3,3.6-4.5,5
						c-2,0.8-4.3,3.2-6.9,5.5c-2.6,2.4-5.3,4.8-7.9,6c-1.1,1.4-5.7,5.7-10.5,9.8c-4.7,4.1-9.4,8.2-9.9,9.8c-0.3-0.1-1.5,0.8,0.6-0.9
						c-4.6,3.3-9.3,6.4-13.1,9.8l-2.6,0.4c-1.5,1.5-3,2.8-4.6,4.2l-4.6,4.2c-6.6,3.6-9.4,5-3.8,0c-6.9,5.7-10.1,7.6-12.8,9.6
						c-1.4,0.9-2.6,1.8-4.4,3.1c-0.8,0.6-1.8,1.3-2.9,2.2c-1.1,0.9-2.4,1.8-4,2.9l0.2-1.1c-4.7,2.8-11.7,8.1-14.9,9.2
						c-2.8,1.2-7.6,3.5-13.6,6.6c-3,1.5-6.3,3.4-9.7,5c-3.5,1.6-7.3,3.1-11.4,4.3c-8.1,2.5-17.2,4.1-25.6,3.2
						c-4.2-0.5-8.2-1.6-11.4-3.5c-1.6-1-3-2.1-4.1-3.4c-0.6-0.6-1.1-1.3-1.6-2c-0.4-0.7-0.9-1.4-1.1-2.1c0,0.7,0,1-0.1,1.1
						c-0.1,0.1-0.3-0.1-0.5-0.5c-0.5-0.8-1.1-2.4-1.3-4.3c-0.2-1.9-0.1-4,0.1-5.7c0.2-1.7,0.4-3.1,0-3.5c0.2-0.4,0.5-0.9,0.7-1.4
						c0.3-0.5,0.5-1,0.7-1.2c0.4-0.6,0.5-0.3,0.1,2c0.8-3.5,2-6.6,3.2-9.5c1.3-2.9,2.5-5.5,3.6-7.9c2.2-4.9,4.1-9.2,5.6-14.6
						c0.7-0.7,0.4,0.1,0.3,1c-0.2,0.9-0.4,1.8,0.1,1.1c0.3-1.2,1.8-4.8,2.8-6.1c1-1.3-0.6,2.3-1.5,4.7c7.1-14.6,6.3-16.9,5.4-18.7
						c1.1-1.8,2-3.3,2.8-4.8c0.9-1.4,1.6-2.7,2.2-3.9c1.3-2.5,2.2-4.9,3.2-7.7c1.8-2.3,4.6-6.2-0.1,2.8c0.7-1.2,2.1-3.8,3.9-6.8
						c0.9-1.5,1.8-3.2,2.8-5c1-1.7,2.1-3.5,3.1-5.2c4.2-6.9,7.9-13.4,7.5-14c0.6-0.7,1.6-2.4,2.6-4.1c1-1.7,2-3.3,2.4-4
						c3.6-5.3,5.5-8.2,7.4-11.1c1-1.4,1.9-2.9,3-4.6c1.1-1.8,2.6-3.7,4.4-6.3l-2.2,2.7c1.6-4.9,5.8-8.7,11.6-17.1l0,0.3
						c1.8-2.3,3.3-4.1,4.6-5.5c1.2-1.5,2.2-2.6,2.9-3.6c1.5-1.9,2.2-2.9,2.9-3.9c0.7-1,1.4-2,2.9-3.8c1.5-1.8,3.6-4.6,7.6-8.7
						l-1.5,0.3c-0.1-1.5,3.4-5.2,8-9.8c2.3-2.3,4.8-4.9,7.3-7.5c2.6-2.6,5.1-5.2,7.2-7.8l-3.7,3.2c2.2-2.9,6.2-6.2,10.2-9.4
						c2-1.6,4-3.2,5.9-4.6c1.9-1.4,3.6-2.8,5-4.1c1.2-1-1.6,2-3,3.7c14.3-12.7,0.8-2.6,10.6-13c2.3-1.4-1.2,3.6,5.6-3.1
						c1.9-1.4,6.6-6.6,12.1-12.4c1.4-1.4,2.8-2.9,4.2-4.4l2.2-2.2c0.8-0.7,1.5-1.4,2.3-2.1c3-2.7,6-5.2,8.7-7.1
						c-2.5,1.5-5,3-0.3-1.7c7.4-7,22.3-16,28.4-23.1c1.1-0.7,1.6-0.9,1.7-0.8c3-2.5,7.9-6.4,12.5-10.2c4.6-3.7,8.8-7.4,10.5-9
						c2-0.4,5.3-2.3,9.4-5.1c2-1.4,4.2-2.9,6.4-4.6c1.1-0.8,2.2-1.7,3.4-2.5l1.7-1.3c0.6-0.4,1.1-0.8,1.7-1.2
						c9.1-6.4,17.5-12.4,18.2-11l2.5-1.6l1.2-0.8c0.4-0.2,0.7-0.5,1.1-0.7c1.5-0.9,3.2-1.6,4.9-2.2c3.4-1.3,7.1-2.1,10.6-2.3
						l-0.5,0.3c3.4-0.2,6.1,0.2,7.8,0.9c1.7,0.7,2.4,1.5,2.9,2.4c0.5,0.9,0.6,1.9,0.5,2.8c-0.2,1-0.6,2.1-1.1,3.2
						c-2.1,2.6-0.9,0.4-0.9,0.1c-3.4,4.3-6.1,7.7-8.4,10.5c-2.3,2.8-4.1,5.2-5.8,7.5c-3.4,4.6-6.3,8.9-11.6,16.7l-2,0.9
						c-1.4,2.2-6.8,8.2-13.5,15.8c-6.8,7.6-14.9,16.8-21.7,25.4c0.1-0.2,0.2-0.7,1.3-2.1c-7.7,9.7-18.1,20.1-27.1,29.2
						c-9,9.1-16.6,16.8-18.4,21.3c-3.6,4.1-7.2,8.1-10.8,12.2c15-14.8-1.1,3.3,5.4-2.4c-1.4,1.5-3.1,3.2-4.8,4.7
						c-1.7,1.5-3.3,2.9-4.5,3.8c-2.4,1.9-3.2,2.2,0.4-1.5l1.3-1c0.7-2-4.1,2.5-9.1,7.3c-5.1,4.7-10.4,9.7-10.6,9.1
						c-30.1,28.4-62.4,52.7-95.4,72.5l4.6-1.1l-5.8,3.5l-2.9,1.7c-1,0.6-2,1.1-2.9,1.6c-1.6,0.7-2.8,1.1-2.5,0.6
						c0.1-0.2,0.6-0.6,1.6-1.3c1-0.7,2.5-1.5,4.5-2.7c-1.2,0.5-2.6,1.3-4.1,2.1c-1.5,0.9-3.1,1.9-4.5,2.9c-2.8,2-5.1,3.8-5.1,4
						c-8.5,4.1-7,2.8-4.1,1c0.7-0.5,1.5-1,2.3-1.5c0.8-0.5,1.5-1,2-1.4c1.1-0.8,1.6-1.1,0.3-0.4c-2.2,1.3-4.5,2.5-6.8,3.8l1.6-0.7
						c-2.7,1.7-4.1,2.8-6.1,4.1c-2,1.3-4.6,2.9-9.9,5.2c-6.7,2.8-3.8,0.8-6.4,1.9c0-0.1-0.9,0.3-4,1.8c-5.2,2.1-10.4,4.3-15.7,6.4
						c2.2-0.4,4.5-1,6.7-1.5c-1.7,0.9-3.4,1.7-5,2.4c-1.6,0.6-3,1.2-4,1.6c-1.9,0.8-2,1,1.9,0.3c-2.9,0.5-8,2.1-14.3,4.2
						c-6.2,1.9-13.6,4-21,5.2c-7.4,1.2-14.7,1.6-20.4,1.1c-5.8-0.5-9.9-1.8-11.4-2.4c-4.8-1.1-9.3-3.3-13.3-6.6
						c-3.9-3.3-7.2-7.8-8.5-13.7c0.2,1.5,0.3,2.7-0.2,2.4c-0.2-0.2-0.7-0.7-1-2c-0.2-0.6-0.5-1.4-0.7-2.3c-0.1-1-0.4-2.1-0.4-3.4
						c0.7,0.9,1.1,0.1,1.3-1.6c0.1-0.4,0.1-0.9,0.1-1.5c0.1-0.6,0.2-1.2,0.2-1.8c0.1-1.3,0.4-2.8,0.6-4.3c0.6-3.1,1.5-6.6,2.9-9.7
						c0.3-0.8,0.7-1.5,1-2.2c0.4-0.7,0.7-1.4,1-2c0.8-1.3,1.4-2.4,2.1-3.2c-1.1,1.6-0.9,0.7,0-1.4c0.4-1,1.2-2.4,2-3.9
						c0.8-1.5,1.6-3.1,2.6-4.7c0.9-1.6,1.8-3.1,2.6-4.4c0.8-1.3,1.5-2.4,1.9-3.2c0.9-1.6,0.7-1.8-1.4,0.5c2.7-3.7,3-3.7,3.1-3.4
						c0.1,0.1,0.1,0.4,0.5,0.2c0.3-0.2,0.9-0.7,2.1-2c6-9.1,14.1-18.1,23.6-26.5c2.4-2.1,4.8-4.2,7.3-6.2c1.3-1,2.5-2,3.8-3.1
						c1.3-1,2.6-2,3.9-3l2-1.5l2-1.4c1.4-1,2.7-1.9,4.1-2.9c1.4-0.9,2.8-1.9,4.2-2.8c1.4-0.9,2.8-1.9,4.2-2.8c0.2-0.5-4,1.4,0.7-2.1
						c2.2-1,4.4-2,6.6-2.9c2.2-0.9,4.4-1.9,6.6-2.7c2.3-1.3,3.2-2.3,4.6-3.5c1.4-1,3.4-2.3,8-3.3c-1.3,0.2-3.4,0.5-0.2-0.9
						c5.3-1.7,10.9-2.8,16.2-2.8c5.4-0.1,10.5,1.5,14.3,4.6l0.4-5.4c-3.8,2.2-8.6,3.2-13.4,2.8c-4.8-0.3-9.7-1.7-14.2-4
						c-0.5-0.3-1.1-0.6-1.7-0.9l-1.6-1l-0.8-0.5l-0.7-0.5l-1.5-1.1l-1.4-1.2l-0.7-0.6c-0.2-0.2-0.4-0.4-0.6-0.7l-1.2-1.3l-1-1.4
						c-2.8-3.9-4.4-8.7-4.7-13.5c-0.1-2.4,0-4.9,0.5-7.3c0.5-2.4,1.2-4.8,2.1-7.2c1.9-4.7,4.6-9.1,7.9-12.9
						c3.3-3.8,7.2-7.1,11.5-9.9c4.3-2.8,8.9-5,13.6-6.7c-1.7,0.5-2.6,0.8-3.1,1c-0.5,0.1-0.4,0,0-0.3c0.4-0.3,1.2-0.7,2.2-1.1
						c1-0.5,2.2-1,3.4-1.4c-3.3,1.1-0.2-0.8-1.1-1c7-2.3,14.4-3.5,21.6-3.6c0.5-0.2,1.2-0.4,2.1-0.5c0.9-0.1,2-0.2,3.2-0.3
						c2.4-0.1,5.3,0,8.1,0.4c5.6,0.6,10.7,2.4,12,2.2c-1.1-0.3-2.2-0.7-3.3-0.9l-1.7-0.4l-1.7-0.3c4.6,0.4,1.8-1.3-2.4-3
						c-4.1-1.7-9.7-2.8-8.9-3.7c-2.8,0.3-6,0.5-9.5,0.7c-3.5,0.2-7.4,0.6-11.5,1.3c-4.1,0.7-8.3,1.9-12.5,3.6
						c-4.1,1.7-8.2,4.1-11.7,7.1c-3.6,1.9,2.6-2.4,0.5-1.6c-1.8,1.6-3.8,3.2-6.3,5.4c-2.5,2.1-5.6,4.7-9.2,8.7l0.6-1
						c-2.4,2.8-4.5,5.7-6.1,8.5c-1.6,2.8-3,5.6-4,8.4c-1.1,2.8-1.8,5.6-2.3,8.5c-0.5,2.8-0.7,5.7-0.5,8.6c0,1.5,0.3,2.9,0.5,4.4
						c0.3,1.5,0.7,3,1.2,4.4c0.1,0.4,0.2,0.7,0.4,1.1c0.1,0.4,0.3,0.7,0.5,1.1c0.3,0.7,0.6,1.5,1,2.2c0.4,0.7,0.8,1.4,1.2,2.1
						c0.4,0.7,1,1.4,1.4,2.1c4.1,5.6,10.3,10.2,18.4,13.3c-0.7-0.6-1.4-1.2-2-1.8c0.4,0.2,0.8,0.4,1.2,0.5c0.4,0.1,0.8,0.3,1.1,0.4
						c0.7,0.3,1.3,0.5,1.9,0.7c1.2,0.4,2.1,0.7,3,1c0.8,0.3,1.6,0.4,2.3,0.6c0.7,0.2,1.5,0.4,2.3,0.5c4.4-0.4-1-0.5-6-2
						c-2.5-0.7-5-1.7-6.3-2.4c-1.3-0.7-1.6-1,0.3-0.7c2.1,1.5,6.4,3.4,12.1,4.2c1.4,0.1,2.9,0.4,4.5,0.3c0.8,0,1.6,0.1,2.4-0.1
						c0.8-0.1,1.6-0.2,2.5-0.3c3.3-0.5,6.7-1.6,9.8-3.5l4.1-2.5l-3.7-3.1c-2.5-2.1-5.4-3.6-8.2-4.7c-1.4-0.4-2.8-0.9-4.2-1.1
						c-1.3-0.3-2.6-0.4-3.8-0.6c-4.9-0.5-8.5,0-10.2-0.4c-1.4,0.3-2.4,0.5-3.1,0.6c-0.7,0.2-1.1,0.3-1.2,0.4
						c-0.4,0.2,0.1,0.2,0.5,0.3c0.4,0,0.9,0.1,0.5,0.3c-0.2,0.1-0.5,0.2-1.2,0.4c-0.3,0.1-0.7,0.2-1.2,0.3c-0.5,0.1-1,0.3-1.7,0.5
						c-1,0.1-2,0.2-3,0.3c-0.8,0.5-1.6,1.1-2.4,1.7c-3.4,1.2-5.9,2.3-7.6,2.9c-1.7,0.6-2.7,0.8-2.9,0.6c0.8-0.4,1.8-1,2.9-1.6
						c1.1-0.6,2.3-1.2,3.1-1.7c-1.1,0.4-2.4,0.9-3.5,1.5c-1.2,0.6-2.4,1.2-3.7,1.9c-2.6,1.3-5.2,2.9-7.6,4.3
						c-2.4,1.4-4.6,2.9-6.4,4.1c-1.8,1.2-3.2,2-3.8,2.4c1.4-0.9,3-1.7,4.4-2.6c1.5-0.8,3-1.7,4.5-2.5c-12.4,7.7-25.6,17.1-37.4,28
						c-5.9,5.5-11.5,11.2-16.5,17.2c-1.3,1.5-2.4,3-3.6,4.5c-0.6,0.8-1.2,1.5-1.7,2.2c-0.6,0.8-1.1,1.5-1.6,2.3
						c-1.1,1.5-2.2,3-3.2,4.5c-1,1.5-1.9,3.1-2.9,4.5l1.6-1.5c-5.7,9.1-7.7,12.9-10.1,16.8c-1.2,2-2.3,4.1-3.6,7.2
						c-1.3,3.1-2.8,7.1-3.8,13.2l0.1-0.9c-0.3,2.5-0.4,5.3-0.4,8.5c0,0.8,0.1,1.6,0.1,2.4c0.1,0.8,0,1.6,0.2,2.5
						c0.3,1.6,0.4,3.3,0.9,5c-0.5-1.5-0.6-1.5-0.6-0.8c0,0.4,0.1,0.9,0.2,1.5c0.1,0.6,0.2,1.3,0.4,2c0.7,2.7,1.5,5.3-0.4,1.3
						c0.3,0.8,0.6,1.5,0.9,2.2c0.4,0.6,0.7,1.3,1,1.9c0.3,0.6,0.7,1.1,1,1.7c0.4,0.5,0.7,0.9,1,1.4c0.7,0.9,1.2,1.7,1.8,2.3
						c0.6,0.6,1.1,1.1,1.6,1.6c0.5,0.5,0.9,0.9,1.3,1.2c0.4,0.3,0.8,0.6,1.1,0.8c0.6,0.5,1.1,0.8,1.5,1.1c0.4,0.3,0.8,0.5,1.3,0.8
						c0.5,0.2,1,0.5,1.7,0.8c0.7,0.3,1.5,0.8,2.7,1.3c0.6,0.2,1.2,0.5,2,0.8c0.4,0.1,0.8,0.3,1.2,0.5c0.2,0.1,0.4,0.2,0.6,0.3
						c0.2,0.1,0.5,0.1,0.7,0.2l3.1,2.1c2.7,0.5,4.2,0.7,6.4,1c1.1,0.1,2.5,0.4,4.3,0.5c0.9,0.1,1.9,0.2,3.1,0.3
						c1.2,0,2.5,0.1,3.9,0.2c-4.9,0-3,0.4-1.3,0.8c0.9,0.2,1.7,0.4,1.6,0.6c-0.1,0.2-1,0.3-3.9,0.4c6.3,0.9,11.9,0.7,16.8,0
						c4.8-0.7,9-1.6,12.6-2.6c3.7-1,6.8-2,9.8-2.9c3-0.9,5.8-1.6,8.6-2c2.5-1.5,2.4-1.8,1.1-1.5c-0.7,0.1-1.7,0.4-2.9,0.8
						c-0.6,0.2-1.2,0.4-1.9,0.6c-0.7,0.2-1.4,0.4-2.1,0.6c-5.7,1.8-12.1,3.5-9.1,2.5c-2.7,0.3-0.5-0.6,3.3-1.9
						c1.9-0.7,4.1-1.5,6.3-2.3c2.2-0.8,4.4-1.7,6.2-2.3c3.6-1.3,7-1.8,11.7-3c2.3-0.6,5-1.4,8.2-2.5c3.2-1.1,7-2.4,11.5-4.6
						c-1.8,0.8-1.8,1-3.6,1.8c3.4-1.3,6.6-3,10-4.8c1.7-0.9,3.5-1.7,5.3-2.7c1.8-0.9,3.8-1.8,5.9-2.7c2-1.7,4.6-3,6.8-4.2
						c2.2-1.2,3.9-2.3,4.1-3.3l-3.9,2.3l-4,2.2l-7.9,4.3c2.2-1.3,4.4-2.6,6.6-4c2.2-1.4,4.5-2.8,6.9-4.4c2.4-1.6,5-3.2,8-5
						c1.5-0.9,3.1-1.7,4.7-2.7c1.6-1,3.4-1.9,5.2-2.9c-0.5,0.5-1.7,1.5-3.2,2.6c-0.7,0.5-1.5,1.1-2.3,1.7c-0.8,0.6-1.6,1.1-2.3,1.6
						c2.3-1,4.2-2.3,6.2-3.6c2-1.3,4-2.6,6.3-3.8c-0.2,1-4.8,4-10.5,7.5c-2.9,1.7-6.1,3.4-9,5.2c-1.5,0.9-3,1.8-4.3,2.6
						c-1.4,0.8-2.7,1.6-3.8,2.4c1.2-0.5,3-1.3,4.8-2.4c1.8-1.1,3.7-2.3,5.4-3.3c3.3-2,5.4-3.3,3.4-1.2c1.4-1.5,3.3-2.7,5.3-4
						c2-1.3,4.2-2.6,6.6-4c2.4-1.4,5-2.8,7.5-4.5c2.5-1.7,5.1-3.6,7.7-5.8l-0.2,1.3c0.8-0.6,2.1-1.6,3.6-2.8
						c1.5-1.1,3.1-2.4,4.7-3.5c-1.7,1.7-3.3,3.4-5.1,5c2.1-1.7,4.2-3.3,6.4-4.8c2.2-1.5,4.3-2.9,6.5-4.2c2.2-1.3,4.3-2.8,6.4-4.2
						c2.1-1.5,4.2-3,6.2-4.7c-17.3,13-4.6,2-12.3,6.9c10.3-8.5,13.8-10.3,17.5-12.4c3.7-2.1,8-4.2,19.3-14c-3,2.7-12,9.3-7.4,4.9
						c4.5-3.5,10.5-8,13.4-10c14.8-13.2-2.9,1.3,3-4.7c5.9-3.5,6.9-6.8,13-12.9l0.7,0.7c8.4-7.5,9.1-8.9,9.7-10.1
						c0.5-1.2,0.9-2.1,8.4-9l-5.2,6.9l7.3-7.6l-0.8,2.3c1.9-2.2,3.5-3.9,5-5.5c1.4-1.6,2.7-2.9,4-4.3c2.6-2.7,5.3-5.2,9.3-9.1
						c-2.3,1.4-0.2-2.2,6.6-9.5c5.1-4.5-1.9,3.4,7.6-6.9c-1.7,2.7-3.6,5.8-8.5,9.6c-0.2,0.7-1.7,2.7-2,3.4c2.8-2.4,6-5.7,8.9-8.9
						c2.9-3.2,5.6-6.2,7.3-8.1c-1.4,1.4-3,3.1-3.9,3.9c2.2-2.6,4.3-5.3,6.5-7.9c2.2-2.6,4.3-5.3,6.4-8c2.4-2.1,0.9-0.1-0.6,2
						c2.7-3.1,4.3-5.5,8.3-10.1c-0.5,1.7,0.4,2-5.1,8.6c4.2-5,8.3-10,12.3-15.1c1.1-0.7,7.3-6.9,5.8-4.8
						c7.5-7.8,16.1-21.1,25.6-31.8c0.4-0.7,1.2-1.9,3-4.4c8.6-10.4,16.8-19.1,25.6-32.5c1.1-1.1,2.2-2,3.4-3.3
						c1.2-1.3,2.4-2.7,3.6-4.8c0.2-0.6,0.4-1.1,0.5-1.6c0.1-0.6,0.3-1.1,0.3-1.5c0.1-0.9,0.1-1.6,0.1-2.1c-0.1-1-0.2-1.3-0.3-1
						c-0.1,0.2-0.1,0.9-0.3,1.7c-0.2,0.8-0.5,1.8-0.8,2.6c-0.4,0.8-0.7,1.3-0.9,1.6c-0.2,0.2-0.3,0.2-0.2-0.4
						c0.1-0.3,0.2-0.7,0.3-1.3c0.1-0.7,0.3-1.5,0.3-2.5c0-1,0-2.3-0.4-3.8c-0.4-1.4-1.2-3.1-2.5-4.6c-0.4-0.6-1-1-1.4-1.4
						c-0.5-0.4-0.9-0.7-1.4-1c-0.9-0.6-1.7-1-2.4-1.3c-1.4-0.6-2.5-0.9-3.3-1.1c-1.5-0.4-2-0.6-2.1-0.8c-0.1-0.2,0.2-0.4,0.1-0.6
						c-0.1-0.2-0.6-0.5-2.1-0.7c-4.5,0.1-10,1.4-16,3.7c-1.5,0.6-3,1.3-4.5,2c-0.8,0.4-1.5,0.8-2.3,1.2c-0.4,0.2-0.8,0.5-1.2,0.7
						c-0.3,0.2-0.7,0.4-1,0.7c-2.7,1.7-5.6,3.4-8.6,5c1.8-1.3,3.5-2.4,5.1-3.5c0.8-0.5,1.6-1.1,2.5-1.6c0.4-0.3,0.8-0.5,1.3-0.8
						C460.6,53.8,461.2,53.5,461.7,53.2z M339.7,147.8c2-2.2,6-6.8,7.9-7.8C345.9,143.1,343.6,144.5,339.7,147.8z M202.8,336.6
						c0.7-2.1,2.3-5.1,4.4-8.5C206.1,330.7,204.6,333.6,202.8,336.6z M343.6,329c0-0.1,0-0.2,0.1-0.3
						C346.3,322.7,345.3,324.8,343.6,329z M338.8,341.7c-0.3,1.3-0.1,1.3,0.2,0.8c0-1,1-3.9,2.2-7.2
						C340.6,336.2,339.8,337.8,338.8,341.7z M209.9,320.2l2.5-0.9C207,322.1,208.5,321.2,209.9,320.2z"/>
					<path class="st0" d="M213.8,312.4c0.5-0.7,0.8-0.8,1.1-0.9C215.2,310.4,215.1,310.3,213.8,312.4z"/>
					<path class="st0" d="M466.1,111.4l-0.3,0.4c-0.1,0.2-0.2,0.4-0.2,0.5L466.1,111.4z"/>
					<path class="st0" d="M476.1,179.4c3.7-1.2,5.5-1.7,6.5-1.8C483.3,177,482,177.3,476.1,179.4z"/>
					<path class="st0" d="M368,373c-2.6,0.7-5.2,1.3-7.9,1.7c3.9-0.5,5.3-0.7,7.3-1C367.1,373.5,365.5,373.6,368,373z"/>
					<path class="st0" d="M435.8,341.6c0.9-0.9,2-1.8,2.9-2.8l-0.6-0.1c-0.5,0.5-1,0.9-1.4,1.4c-0.5,0.4-0.9,0.8-1.3,1.2
						c-0.8,0.7-1.3,1.3-1.7,1.6C433.2,343.6,433.6,343.4,435.8,341.6z"/>
					<path class="st0" d="M376.3,373.7c0.9,0.5,6-1.6,11.5-4.3c-0.3,0.1-0.7,0.3-1,0.4c0.6-0.9-0.6-0.6-2.6,0.3
						c-0.5,0.2-1.1,0.5-1.7,0.8c-0.6,0.3-1.3,0.5-1.9,0.8C379.2,372.4,377.7,373,376.3,373.7z"/>
					<path class="st0" d="M389,368.8c1.7-0.8,3.4-1.7,5.1-2.4C394.6,365.7,392.1,367.4,389,368.8z"/>
					<path class="st0" d="M334.6,358.1c-0.3,1.2-0.1,1.7,0.1,1.9c0.2,0.3,0.4,0.4,0.2,1.1c0.2,0.7,0.3,0,0.4-1.1
						c0.1-1.2,0.3-2.9,0.5-4.5c0.2-1.5,0.4-2.8,0.2-2.6c-0.1,0.1-0.2,0.5-0.5,1.3C335.2,355.1,334.9,356.4,334.6,358.1z"/>
					<polygon class="st0" points="381.9,374.4 379.4,374.3 376.5,376.3 					"/>
					<path class="st0" d="M335.6,374.7c2.4,2.1,5.3,3.5,8.4,4.4c-0.1-0.2,1.1,0,2.6,0.2c-1.5-0.3-2.9-0.6-4.3-1.1
						c-1.3-0.5-2.6-1-3.6-1.6C336.7,375.6,335.6,374.5,335.6,374.7z"/>
					<path class="st0" d="M346.6,379.4c3.1,0.6,6,0.6,7.8,0.4C352.7,379.8,349.1,379.7,346.6,379.4z"/>
					<path class="st0" d="M369.2,379c-1,0.2-1.9,0.3-2.9,0.4c-2.3,0.4-4.6,0.8-6.9,1C362.6,380.2,365.9,379.7,369.2,379z"/>
					<path class="st0" d="M363.5,278.2l1.3-2.3l1.4-2.3c0.9-1.5,1.8-3.1,2.8-4.6c0.2-0.5-0.2-0.2-0.9,0.6c-0.7,0.9-1.6,2.3-2.6,4.1
						C364.3,275.9,362.4,279.4,363.5,278.2z"/>
					<path class="st0" d="M346,305.9c1.4-2.6,1.7-2.7,2.7-4l-1-0.8L346,305.9z"/>
					<path class="st0" d="M360.3,277.6c0.2-1.1,7.5-14,0.2-2.2c-0.1,0.6-1.5,3.2-2.2,4.7C357.7,281.6,357.6,281.8,360.3,277.6z"/>
					<path class="st0" d="M471.4,192.8l1.4-2.5l-3.7,2.4C469.9,192.5,470.8,192.5,471.4,192.8z"/>
					<path class="st0" d="M386.2,309.2c1.2-1,2.2-1.9,2.9-2.6c0.7-0.7,1.2-1.2,1.5-1.6c0.7-0.8,0.8-1.2,1-1.5
						c0.2-0.6,0.3-1.2,4.7-5.1c1.8-2.5-7.1,6.4-5.2,3.9C385.9,308.2,382.6,310.6,386.2,309.2z"/>
					<path class="st0" d="M391,302.3c0.8-0.9,1.7-1.9,2.6-3C392.1,301,391.4,301.8,391,302.3z"/>
					<path class="st0" d="M264.2,121.7c1.2,0.3,2.5,0.5,3.7,0.9l1.8,0.5l1.8,0.6c-1.5-0.7-3-1.2-4.6-1.8L264.2,121.7z"/>
					<path class="st0" d="M278.7,124.3c0.4,0.6,0.7,1.3,1.1,1.9c1.5,0.3,3,0.7,4.6,1.1c-0.8-0.4-1.9-1-3-1.6
						C280.2,125.2,279.2,124.7,278.7,124.3z"/>
					<path class="st0" d="M321.4,162l-0.2,0.7c1.1-0.7,2.5-2,5.3-4.8L321.4,162z"/>
					<polygon class="st0" points="406.9,89.2 405.3,90.3 408.9,89.1 					"/>
					<path class="st0" d="M495.2,47.6c-1.4-0.8-2.9-1.3-4.4-1.7c-1.5-0.4-2.9-0.6-4.3-0.7c-2.8-0.2-5.3,0-7.6,0.2
						c5-0.7,9.4,0.1,12.3,1.2c1.5,0.5,2.6,1.1,3.2,1.4C495.2,48.2,495.4,48.1,495.2,47.6z"/>
				</g>
			</g>
		</g>
	</g>
</g>
</svg>
